<svg id="ebjztm1bqh6r1" xmlns="http://www.w3.org/2000/svg" xmlns:xlink="http://www.w3.org/1999/xlink" viewBox="0 0 1850 500" shape-rendering="geometricPrecision" text-rendering="geometricPrecision"><style><![CDATA[#ebjztm1bqh6r3 {
           animation-name: ebjztm1bqh6r3_f_p, ebjztm1bqh6r3_f_o, ebjztm1bqh6r3_s_p, ebjztm1bqh6r3_s_o, ebjztm1bqh6r3_s_do;
           animation-duration: 7000ms;
           animation-fill-mode: forwards;
           animation-timing-function: linear;
           animation-direction: normal;
           animation-iteration-count: infinite;  
        }@keyframes ebjztm1bqh6r3_f_p { 0% {fill: rgba(255,255,255,0)} 42.857143% {fill: rgba(255,255,255,0)} 57.142857% {fill: rgb(255,255,255)} 71.428571% {fill: rgb(255,255,255)} 100% {fill: rgb(255,255,255)} }@keyframes ebjztm1bqh6r3_f_o { 0% {fill-opacity: 0} 42.857143% {fill-opacity: 0} 57.142857% {fill-opacity: 1} 71.428571% {fill-opacity: 0} 100% {fill-opacity: 0} }@keyframes ebjztm1bqh6r3_s_p { 0% {stroke: rgb(255,255,255)} 57.142857% {stroke: rgb(255,255,255)} 71.428571% {stroke: rgb(255,255,255)} 100% {stroke: rgb(255,255,255)} }@keyframes ebjztm1bqh6r3_s_o { 0% {stroke-opacity: 1} 57.142857% {stroke-opacity: 1} 71.428571% {stroke-opacity: 0} 100% {stroke-opacity: 0} }@keyframes ebjztm1bqh6r3_s_do { 0% {stroke-dashoffset: 2891.400000} 42.857143% {stroke-dashoffset: 1445.700000} 100% {stroke-dashoffset: 1445.700000} }#ebjztm1bqh6r4 {
           animation-name: ebjztm1bqh6r4_f_p, ebjztm1bqh6r4_f_o, ebjztm1bqh6r4_s_p, ebjztm1bqh6r4_s_o, ebjztm1bqh6r4_s_do;
           animation-duration: 7000ms;
           animation-fill-mode: forwards;
           animation-timing-function: linear;
           animation-direction: normal;
           animation-iteration-count: infinite;  
        }@keyframes ebjztm1bqh6r4_f_p { 0% {fill: rgba(255,255,255,0)} 42.857143% {fill: rgba(255,255,255,0)} 57.142857% {fill: rgb(255,255,255)} 71.428571% {fill: rgb(255,255,255)} 100% {fill: rgb(255,255,255)} }@keyframes ebjztm1bqh6r4_f_o { 0% {fill-opacity: 0} 42.857143% {fill-opacity: 0} 57.142857% {fill-opacity: 1} 71.428571% {fill-opacity: 0} 100% {fill-opacity: 0} }@keyframes ebjztm1bqh6r4_s_p { 0% {stroke: rgb(255,255,255)} 57.142857% {stroke: rgb(255,255,255)} 71.428571% {stroke: rgb(255,255,255)} 100% {stroke: rgb(255,255,255)} }@keyframes ebjztm1bqh6r4_s_o { 0% {stroke-opacity: 1} 57.142857% {stroke-opacity: 1} 71.428571% {stroke-opacity: 0} 100% {stroke-opacity: 0} }@keyframes ebjztm1bqh6r4_s_do { 0% {stroke-dashoffset: -2891.400000} 42.857143% {stroke-dashoffset: -1445.700000} 100% {stroke-dashoffset: -1445.700000} }#ebjztm1bqh6r5 {
           animation-name: ebjztm1bqh6r5_f_p, ebjztm1bqh6r5_f_o, ebjztm1bqh6r5_s_o, ebjztm1bqh6r5_s_do;
           animation-duration: 7000ms;
           animation-fill-mode: forwards;
           animation-timing-function: linear;
           animation-direction: normal;
           animation-iteration-count: infinite;  
        }@keyframes ebjztm1bqh6r5_f_p { 0% {fill: rgba(255,255,255,0)} 42.857143% {fill: rgba(255,255,255,0)} 57.142857% {fill: rgb(255,255,255)} 71.428571% {fill: rgb(255,255,255)} 100% {fill: rgb(255,255,255)} }@keyframes ebjztm1bqh6r5_f_o { 0% {fill-opacity: 0} 42.857143% {fill-opacity: 0} 57.142857% {fill-opacity: 1} 71.428571% {fill-opacity: 0} 100% {fill-opacity: 0} }@keyframes ebjztm1bqh6r5_s_o { 0% {stroke-opacity: 1} 57.142857% {stroke-opacity: 1} 71.428571% {stroke-opacity: 0} 100% {stroke-opacity: 0} }@keyframes ebjztm1bqh6r5_s_do { 0% {stroke-dashoffset: 43.040000} 27.142857% {stroke-dashoffset: 43.040000} 31.428571% {stroke-dashoffset: 0} 100% {stroke-dashoffset: 0} }]]></style><g id="ebjztm1bqh6r2" transform="matrix(4.24337239914036 0 0 4.24337239914036 -19.81681337258601 -2.05632698129713)"><path id="ebjztm1bqh6r3" d="M58.900000,2.500000C58,2.500000,57.200000,2.900000,56.600000,3.600000C55.900000,4.500000,55.800000,5.500000,55.800000,6.500000L55.800000,109.600000C55.800000,111.800000,54.800000,112.900000,52.500000,112.900000C49.700000,112.900000,46.900000,112.900000,44.100000,112.900000C42.200000,112.900000,41.200000,112.200000,40.800000,110.300000C39.400000,103.400000,31.700000,64.600000,30.800000,59.800000C30.500000,58,31.800000,56.300000,33.800000,56.300000L128.400000,56.300000C130.400000,56.300000,131.800000,55.300000,132.600000,53.600000C135.600000,47.300000,138.500000,41,141.500000,34.800000C141.900000,34.100000,141.800000,33.400000,141.500000,32.800000C140.800000,31.500000,139.700000,30.900000,138.200000,30.900000C120.400000,30.900000,84,30.900000,83.600000,31C81.800000,31.500000,80.900000,32.800000,80.900000,35.100000L81.100000,90.500000C81.100000,93.100000,82.300000,94.200000,84.800000,94.200000C123.600000,94.200000,201.700000,94.200000,202,94.200000C203.700000,94,205.200000,92.100000,204.800000,90.700000C203.500000,86,196.700000,63.100000,195,56.400000C194.400000,54,193.200000,52.900000,190.600000,52.900000C184.500000,52.900000,178.400000,52.900000,172.400000,52.900000C168.100000,52.900000,168.100000,52.900000,166.700000,48.800000C165.600000,45.300000,164.500000,41.700000,163.300000,38.200000C162.500000,35.900000,164.300000,34,166.300000,34.100000C167.400000,34.200000,256.200000,34.100000,256.500000,34.100000C258.400000,34.200000,259.700000,35.900000,259.200000,37.800000L244.400000,87.800000C243.900000,89.400000,242.400000,90.700000,240.700000,90.800000C238.200000,90.800000,235.700000,90.800000,233.300000,90.800000C231.600000,90.800000,230.400000,89.500000,230.400000,87.800000C230.400000,80.900000,230.500000,61.600000,230.300000,59.500000C230.200000,57.800000,231.800000,56.300000,233.400000,56.300000L278.900000,56.300000C280.900000,56.300000,281.900000,57.300000,281.900000,59.300000C281.900000,68.500000,281.900000,104.300000,281.900000,113.100000C281.900000,115,283.300000,116.300000,285.200000,116.300000C294.900000,116.300000,348.900000,116.300000,360.700000,116.300000C362.900000,116.300000,364.200000,115.100000,364.200000,112.800000L364.200000,34.700000C364.200000,32.100000,363,30.900000,360.400000,30.900000C342.700000,30.900000,325,30.900000,307.200000,30.900000C307,30.900000,306.700000,30.900000,306.500000,30.900000C304.600000,31,303.100000,32.900000,303.500000,34.800000C304.500000,40.500000,312.200000,83.700000,313.300000,90.500000C313.800000,93.400000,314.700000,94.400000,317.800000,94.400000L385.800000,94.400000C388.200000,94.400000,389.300000,93.200000,389.300000,90.900000C389.300000,73.400000,389.300000,37.800000,389.300000,37.500000C389.400000,35.800000,390.700000,34.400000,392.400000,34.400000C395.400000,34.400000,398.500000,34.400000,401.500000,34.400000C402.900000,34.400000,404.200000,35.500000,404.400000,36.800000C404.800000,39.900000,414.600000,87.100000,415.200000,91.600000C415.400000,93,416.700000,94.300000,418.200000,94.300000C420.400000,94.300000,422.700000,94.300000,424.900000,94.300000C426.300000,94.300000,427.600000,93.100000,427.800000,91.800000C428,90.500000,436.600000,39,437.100000,35.500000C437.500000,32.400000,436.400000,31,433.300000,31C415.700000,31,398,31,380.400000,31C377.800000,31,376.600000,32.300000,376.600000,34.800000C376.600000,52.900000,376.600000,71,376.600000,89.200000C376.600000,90.700000,376.300000,91,374.800000,91L329.600000,91C327.200000,91,325.900000,89.500000,326.400000,87.200000C328.200000,78,336.300000,36.200000,336.900000,35.500000C337.500000,34.800000,338.200000,34.400000,339.100000,34.400000C341.900000,34.400000,344.700000,34.400000,347.500000,34.400000C350.100000,34.400000,351.300000,35.600000,351.300000,38.200000L351.300000,109.700000C351.300000,111.900000,349.900000,113.100000,347.700000,113.100000C337.900000,113,311.200000,113.100000,307.800000,113.100000C306,113.100000,304.800000,112.100000,304.600000,110.400000C304.400000,109.300000,295.700000,61.600000,294.700000,56C294.300000,54,293.400000,53.100000,291.300000,53.100000L211.100000,53.100000C210,53.100000,209.100000,53.300000,208.300000,54C207.300000,54.800000,207.100000,55.900000,207.500000,57C208.300000,60.100000,215,83.200000,217.400000,91.700000C217.900000,93.300000,219,94.300000,220.700000,94.300000C235.400000,94.300000,250,94.300000,264.700000,94.300000C266.400000,94.300000,267.500000,93.400000,267.900000,91.700000C268.300000,90.300000,268.100000,35.400000,268.100000,35.400000C268.100000,32.600000,266.700000,30.900000,263.700000,30.900000C235.600000,31,159.400000,30.900000,157.200000,30.900000C156.300000,30.900000,155.600000,31.200000,155.100000,32.100000C154.500000,33.200000,147.300000,46.700000,144.300000,52.400000C143.900000,53.100000,143.900000,53.800000,144.200000,54.600000C144.800000,55.900000,145.900000,56.500000,147.300000,56.500000C157.400000,56.500000,178.400000,56.500000,178.900000,56.500000C180.800000,56.700000,182.200000,58.500000,181.700000,60C179.400000,66.500000,172.800000,86.100000,171.200000,89.200000C170.600000,90.500000,169.700000,91.100000,168.200000,91C148.600000,91,128.900000,91,109.300000,91C107.600000,91,106.500000,90.300000,106,88.800000L90,38.500000C89.400000,36.500000,91,34.300000,93.100000,34.300000C96.800000,34.300000,111.600000,34.300000,115.300000,34.300000C117.500000,34.300000,118.600000,35.400000,118.600000,37.600000C118.600000,41.700000,118.600000,45.800000,118.600000,49.800000C118.600000,51.900000,117.500000,53,115.500000,53L21.700000,53C19,53,17.900000,54,17.500000,56.600000C17.600000,59,9,107.400000,8.200000,112.600000C7.800000,114.700000,9.300000,116.300000,11.400000,116.300000C29.400000,116.300000,47.500000,116.300000,65.500000,116.300000C66.400000,116.300000,67.100000,116,67.700000,115.400000C68.600000,114.500000,68.800000,113.500000,68.800000,112.300000C68.800000,112.300000,68.800000,8.300000,68.800000,6C68.800000,3.800000,67.500000,2.600000,65.400000,2.600000L58.900000,2.500000Z" paint-order="stroke fill markers" fill="rgba(255,255,255,0)" fill-opacity="0" stroke="rgb(255,255,255)" stroke-width="1" stroke-linecap="round" stroke-linejoin="round" stroke-miterlimit="10" stroke-dashoffset="2891.400000" stroke-dasharray="2891.400000"/><path id="ebjztm1bqh6r4" d="M58.900000,2.500000C58,2.500000,57.200000,2.900000,56.600000,3.600000C55.900000,4.500000,55.800000,5.500000,55.800000,6.500000L55.800000,109.600000C55.800000,111.800000,54.800000,112.900000,52.500000,112.900000C49.700000,112.900000,46.900000,112.900000,44.100000,112.900000C42.200000,112.900000,41.200000,112.200000,40.800000,110.300000C39.400000,103.400000,31.700000,64.600000,30.800000,59.800000C30.500000,58,31.800000,56.300000,33.800000,56.300000L128.400000,56.300000C130.400000,56.300000,131.800000,55.300000,132.600000,53.600000C135.600000,47.300000,138.500000,41,141.500000,34.800000C141.900000,34.100000,141.800000,33.400000,141.500000,32.800000C140.800000,31.500000,139.700000,30.900000,138.200000,30.900000C120.400000,30.900000,84,30.900000,83.600000,31C81.800000,31.500000,80.900000,32.800000,80.900000,35.100000L81.100000,90.500000C81.100000,93.100000,82.300000,94.200000,84.800000,94.200000C123.600000,94.200000,201.700000,94.200000,202,94.200000C203.700000,94,205.200000,92.100000,204.800000,90.700000C203.500000,86,196.700000,63.100000,195,56.400000C194.400000,54,193.200000,52.900000,190.600000,52.900000C184.500000,52.900000,178.400000,52.900000,172.400000,52.900000C168.100000,52.900000,168.100000,52.900000,166.700000,48.800000C165.600000,45.300000,164.500000,41.700000,163.300000,38.200000C162.500000,35.900000,164.300000,34,166.300000,34.100000C167.400000,34.200000,256.200000,34.100000,256.500000,34.100000C258.400000,34.200000,259.700000,35.900000,259.200000,37.800000L244.400000,87.800000C243.900000,89.400000,242.400000,90.700000,240.700000,90.800000C238.200000,90.800000,235.700000,90.800000,233.300000,90.800000C231.600000,90.800000,230.400000,89.500000,230.400000,87.800000C230.400000,80.900000,230.500000,61.600000,230.300000,59.500000C230.200000,57.800000,231.800000,56.300000,233.400000,56.300000L278.900000,56.300000C280.900000,56.300000,281.900000,57.300000,281.900000,59.300000C281.900000,68.500000,281.900000,104.300000,281.900000,113.100000C281.900000,115,283.300000,116.300000,285.200000,116.300000C294.900000,116.300000,348.900000,116.300000,360.700000,116.300000C362.900000,116.300000,364.200000,115.100000,364.200000,112.800000L364.200000,34.700000C364.200000,32.100000,363,30.900000,360.400000,30.900000C342.700000,30.900000,325,30.900000,307.200000,30.900000C307,30.900000,306.700000,30.900000,306.500000,30.900000C304.600000,31,303.100000,32.900000,303.500000,34.800000C304.500000,40.500000,312.200000,83.700000,313.300000,90.500000C313.800000,93.400000,314.700000,94.400000,317.800000,94.400000L385.800000,94.400000C388.200000,94.400000,389.300000,93.200000,389.300000,90.900000C389.300000,73.400000,389.300000,37.800000,389.300000,37.500000C389.400000,35.800000,390.700000,34.400000,392.400000,34.400000C395.400000,34.400000,398.500000,34.400000,401.500000,34.400000C402.900000,34.400000,404.200000,35.500000,404.400000,36.800000C404.800000,39.900000,414.600000,87.100000,415.200000,91.600000C415.400000,93,416.700000,94.300000,418.200000,94.300000C420.400000,94.300000,422.700000,94.300000,424.900000,94.300000C426.300000,94.300000,427.600000,93.100000,427.800000,91.800000C428,90.500000,436.600000,39,437.100000,35.500000C437.500000,32.400000,436.400000,31,433.300000,31C415.700000,31,398,31,380.400000,31C377.800000,31,376.600000,32.300000,376.600000,34.800000C376.600000,52.900000,376.600000,71,376.600000,89.200000C376.600000,90.700000,376.300000,91,374.800000,91L329.600000,91C327.200000,91,325.900000,89.500000,326.400000,87.200000C328.200000,78,336.300000,36.200000,336.900000,35.500000C337.500000,34.800000,338.200000,34.400000,339.100000,34.400000C341.900000,34.400000,344.700000,34.400000,347.500000,34.400000C350.100000,34.400000,351.300000,35.600000,351.300000,38.200000L351.300000,109.700000C351.300000,111.900000,349.900000,113.100000,347.700000,113.100000C337.900000,113,311.200000,113.100000,307.800000,113.100000C306,113.100000,304.800000,112.100000,304.600000,110.400000C304.400000,109.300000,295.700000,61.600000,294.700000,56C294.300000,54,293.400000,53.100000,291.300000,53.100000L211.100000,53.100000C210,53.100000,209.100000,53.300000,208.300000,54C207.300000,54.800000,207.100000,55.900000,207.500000,57C208.300000,60.100000,215,83.200000,217.400000,91.700000C217.900000,93.300000,219,94.300000,220.700000,94.300000C235.400000,94.300000,250,94.300000,264.700000,94.300000C266.400000,94.300000,267.500000,93.400000,267.900000,91.700000C268.300000,90.300000,268.100000,35.400000,268.100000,35.400000C268.100000,32.600000,266.700000,30.900000,263.700000,30.900000C235.600000,31,159.400000,30.900000,157.200000,30.900000C156.300000,30.900000,155.600000,31.200000,155.100000,32.100000C154.500000,33.200000,147.300000,46.700000,144.300000,52.400000C143.900000,53.100000,143.900000,53.800000,144.200000,54.600000C144.800000,55.900000,145.900000,56.500000,147.300000,56.500000C157.400000,56.500000,178.400000,56.500000,178.900000,56.500000C180.800000,56.700000,182.200000,58.500000,181.700000,60C179.400000,66.500000,172.800000,86.100000,171.200000,89.200000C170.600000,90.500000,169.700000,91.100000,168.200000,91C148.600000,91,128.900000,91,109.300000,91C107.600000,91,106.500000,90.300000,106,88.800000L90,38.500000C89.400000,36.500000,91,34.300000,93.100000,34.300000C96.800000,34.300000,111.600000,34.300000,115.300000,34.300000C117.500000,34.300000,118.600000,35.400000,118.600000,37.600000C118.600000,41.700000,118.600000,45.800000,118.600000,49.800000C118.600000,51.900000,117.500000,53,115.500000,53L21.700000,53C19,53,17.900000,54,17.500000,56.600000C17.600000,59,9,107.400000,8.200000,112.600000C7.800000,114.700000,9.300000,116.300000,11.400000,116.300000C29.400000,116.300000,47.500000,116.300000,65.500000,116.300000C66.400000,116.300000,67.100000,116,67.700000,115.400000C68.600000,114.500000,68.800000,113.500000,68.800000,112.300000C68.800000,112.300000,68.800000,8.300000,68.800000,6C68.800000,3.800000,67.500000,2.600000,65.400000,2.600000L58.900000,2.500000Z" paint-order="stroke fill markers" fill="rgba(255,255,255,0)" fill-opacity="0" stroke="rgb(255,255,255)" stroke-width="1" stroke-linecap="round" stroke-linejoin="round" stroke-miterlimit="10" stroke-dashoffset="-2891.400000" stroke-dasharray="2891.400000"/><path id="ebjztm1bqh6r5" d="M282.200000,41.700000C282.200000,43.200000,282.700000,43.700000,284.200000,43.800000C286.500000,43.800000,288.800000,43.800000,291.100000,43.800000C292.800000,43.800000,293.200000,43.100000,292.900000,41.500000C292.300000,38.500000,291.700000,35.500000,291.100000,32.400000C290.900000,31.400000,290.400000,30.900000,289.300000,30.900000C287.500000,30.900000,285.700000,30.900000,283.900000,30.900000C282.700000,30.900000,282.200000,31.400000,282.200000,32.600000C282.200000,34.200000,282.200000,35.700000,282.200000,37.300000C282.200000,38.700000,282.200000,40.200000,282.200000,41.700000Z" fill="rgba(255,255,255,0)" fill-opacity="0" stroke="rgb(255,255,255)" stroke-width="1" stroke-linecap="round" stroke-linejoin="round" stroke-miterlimit="10" stroke-dashoffset="43.040000" stroke-dasharray="43.040000"/></g></svg>